{"title":"Kara Sevda S01E15.DVB-T.X264.ARI Greek Subs","uid":15146162,"size":352297459,"categoryP":"video","categoryS":"tv_shows","magnet":"?xt=urn:btih:2d10e35561b192ca11d689a4b9cd5228632bdff8&amp;dn=Kara+Sevda+S01E15.DVB-T.X264.ARI+Greek+Subs&amp;tr=udp%3A%2F%2Ftracker.leechers-paradise.org%3A6969&amp;tr=udp%3A%2F%2Fzer0day.ch%3A1337&amp;tr=udp%3A%2F%2Fopen.demonii.com%3A1337&amp;tr=udp%3A%2F%2Ftracker.coppersurfer.tk%3A6969&amp;tr=udp%3A%2F%2Fexodus.desync.com%3A6969","seeders":1,"leechers":0,"uploader":"Aris2015","files":1,"time":1467232049,"description":"S01 EP 15 λειπουν 2 λεπτά video στη μεση!\r\n\r\nGeneral\r\nComplete name               : Kara Sevda S01E15.DVB-T.X264.ARI.mp4\r\nFormat                      : MPEG-4\r\nFormat profile              : Base Media\r\nCodec ID                    : isom (isom/iso2/avc1/mp41)\r\nFile size                   : 336 MiB\r\nDuration                    : 41mn 26s\r\nOverall bit rate mode       : Variable\r\nOverall bit rate            : 1 134 Kbps\r\nMovie name                  : Kara Sevda S01E15.DVB-T.X264.ARI\r\nPerformer                   : ARI\r\nEncoded date                : UTC 2016-06-28 20:28:03\r\nTagged date                 : UTC 2016-06-28 20:28:03\r\nWriting application         : Lavf57.26.100\r\nCopyright                   : MEGA TV\r\n\r\nVideo\r\nID                          : 1\r\nFormat                      : AVC\r\nFormat/Info                 : Advanced Video Codec\r\nFormat profile              :   \r\nFormat settings, CABAC      : Yes\r\nFormat settings, ReFrames   : 16 frames\r\nCodec ID                    : avc1\r\nCodec ID/Info               : Advanced Video Coding\r\nDuration                    : 41mn 26s\r\nBit rate mode               : Variable\r\nBit rate                    : 1 000 Kbps\r\nMaximum bit rate            : 17.5 Mbps\r\nWidth                       : 720 pixels\r\nHeight                      : 576 pixels\r\nDisplay aspect ratio        : 16:9\r\nFrame rate mode             : Constant\r\nFrame rate                  : 25.000 fps\r\nStandard                    : PAL\r\nColor space                 : YUV\r\nChroma subsampling          : 4:2:0\r\nBit depth                   : 8 bits\r\nScan type                   : Progressive\r\nBits/(Pixel*Frame)          : 0.096\r\nStream size                 : 296 MiB (88%)\r\nWriting library             : x264 core 148 r2665\r\n\r\n\r\nAudio\r\nID                          : 2\r\nFormat                      : AAC\r\nFormat/Info                 : Advanced Audio Codec\r\nFormat profile              : LC\r\nCodec ID                    : 40\r\nDuration                    : 41mn 26s\r\nDuration_LastFrame          : -16ms\r\nBit rate mode               : Constant\r\nBit rate                    : 128 Kbps\r\nChannel(s)                  : 2 channels\r\nChannel positions           : Front: L R\r\nSampling rate               : 48.0 KHz\r\nFrame rate                  : 46.875 fps (1024 spf)\r\nCompression mode            : Lossy\r\nStream size                 : 37.9 MiB (11%)\r\nLanguage                    : Turkish\r\nDefault                     : Yes","torrent":{"xt":"urn:btih:2d10e35561b192ca11d689a4b9cd5228632bdff8","amp;dn":"Kara+Sevda+S01E15.DVB-T.X264.ARI+Greek+Subs","amp;tr":["udp%3A%2F%2Ftracker.leechers-paradise.org%3A6969","udp%3A%2F%2Fzer0day.ch%3A1337","udp%3A%2F%2Fopen.demonii.com%3A1337","udp%3A%2F%2Ftracker.coppersurfer.tk%3A6969","udp%3A%2F%2Fexodus.desync.com%3A6969"],"infoHash":"2d10e35561b192ca11d689a4b9cd5228632bdff8","infoHashBuffer":{"type":"Buffer","data":[45,16,227,85,97,177,146,202,17,214,137,164,185,205,82,40,99,43,223,248]},"announce":[],"urlList":[]}}